<svg xmlns="http://www.w3.org/2000/svg" viewBox="0 0 197.4 172.83">
    <path d="M153.29,91.88v57.5a9.66,9.66,0,0,1-9.65,9.65H23.44a9.66,9.66,0,0,1-9.65-9.65V29.19a9.66,9.66,0,0,1,9.65-9.65H130.08L143.84,5.76H23.44A23.47,23.47,0,0,0,0,29.19v120.2a23.47,23.47,0,0,0,23.44,23.44h120.2a23.47,23.47,0,0,0,23.44-23.44V78.09Z"
          style="fill:#3a3a3a"></path>
    <polygon points="85.97 83.16 55.72 52.91 27.44 81.19 57.69 111.44 85.97 139.72 114.24 111.44 197.4 28.28 169.13 0 85.97 83.16" style="fill:#0c2c53"></polygon>
</svg>
