<svg xmlns="http://www.w3.org/2000/svg" viewBox="0 0 232.6 92">
    <title>hear-com-claim-16-unbounce-inline</title>
    <path d="M104,74.1a2.79,2.79,0,0,0-1.8-.6c-.8,0-1.4.3-1.4,1,0,1.6,4.1.9,4.1,3.8,0,1.7-1.5,2.3-3.1,2.3a3.57,3.57,0,0,1-2.6-.9l.7-.9a2.72,2.72,0,0,0,2,.7c.8,0,1.5-.2,1.5-1.1,0-1.7-4.1-.9-4.1-3.8,0-1.5,1.3-2.2,3-2.2a3.33,3.33,0,0,1,2.4.8Z"
          transform="translate(-1)" style="fill:#285ea4;opacity:0.5;isolation:isolate"></path>
    <path d="M107.4,68.9a.9.9,0,1,1-.9.9A.84.84,0,0,1,107.4,68.9Zm.7,3.6v8h-1.4v-8Z" transform="translate(-1)" style="fill:#285ea4;opacity:0.5;isolation:isolate"></path>
    <path d="M112,72.5v1.7a2.58,2.58,0,0,1,2.5-1.9,2.08,2.08,0,0,1,2.2,1.9,2.67,2.67,0,0,1,2.5-1.9,2.3,2.3,0,0,1,2.3,2.6v5.5h-1.4V75.2c0-1.1-.2-1.7-1.1-1.7-1.1,0-2.2,1.1-2.2,4v2.8h-1.4V75.1c0-1-.2-1.7-1.1-1.7-1.1,0-2.2,1.1-2.2,4v2.8h-1.4v-8l1.3.3Z"
          transform="translate(-1)" style="fill:#285ea4;opacity:0.5;isolation:isolate"></path>
    <path d="M125.2,72.5v1.4a2.88,2.88,0,0,1,2.6-1.6,2.48,2.48,0,0,1,1.8.7,5,5,0,0,1,.9,3.3,5,5,0,0,1-1.1,3.6,3.3,3.3,0,0,1-2.1.7,2.74,2.74,0,0,1-2.2-.9v4.6h-1.4V72.5Zm.8,1.9a4.3,4.3,0,0,0-.7,2.5,2.85,2.85,0,0,0,.5,1.9,2,2,0,0,0,1.6.6c1.4,0,1.8-.8,1.8-3,0-2-.4-2.8-1.5-2.8A2.14,2.14,0,0,0,126,74.4Z"
          transform="translate(-1)" style="fill:#285ea4;opacity:0.5;isolation:isolate"></path>
    <path d="M133.8,68.2V80.4h-1.5V68.2Z" transform="translate(-1)" style="fill:#285ea4;opacity:0.5;isolation:isolate"></path>
    <path d="M140.3,80c-.8,2.6-1.8,4.3-3.6,4.3a2.13,2.13,0,0,1-1.2-.3l.5-1.2a1.85,1.85,0,0,0,.7.2c.9,0,1.5-.8,2-2.6h-.8l-2.6-7.9h1.5l2.2,7.2,2-7.2h1.5Z" transform="translate(-1)"
          style="fill:#285ea4;opacity:0.5;isolation:isolate"></path>
    <path d="M153.9,72.5v8.2c0,1.8-.7,3.6-3.7,3.6a5.07,5.07,0,0,1-3-.9l.7-1.1a3.69,3.69,0,0,0,2.3.7c1.9,0,2.2-.9,2.2-2.4V79a2.79,2.79,0,0,1-2.6,1.5,2.26,2.26,0,0,1-2-.9,5.45,5.45,0,0,1-.8-3.1,4.8,4.8,0,0,1,.9-3.3,3,3,0,0,1,2.2-.9,2.47,2.47,0,0,1,2.3,1.2V72.4l1.5.1Zm-2.3,6.2a3.67,3.67,0,0,0,.8-2.6,2.81,2.81,0,0,0-.6-2,2,2,0,0,0-1.4-.5c-1.5,0-1.8,1.1-1.8,3s.3,2.8,1.6,2.8A2.33,2.33,0,0,0,151.6,78.7Z"
          transform="translate(-1)" style="fill:#285ea4;opacity:0.5;isolation:isolate"></path>
    <path d="M161.5,79.6a3.5,3.5,0,0,1-2.6,1.1,3.4,3.4,0,0,1-2.5-.9,4.26,4.26,0,0,1-.9-3.1,4.65,4.65,0,0,1,.9-3.3,3.46,3.46,0,0,1,2.6-1,3.4,3.4,0,0,1,2.5.9,4.41,4.41,0,0,1,.9,3.1A4.68,4.68,0,0,1,161.5,79.6ZM160.4,74a1.81,1.81,0,0,0-1.4-.5,1.85,1.85,0,0,0-1.4.5,4.4,4.4,0,0,0-.6,2.5,4.11,4.11,0,0,0,.5,2.3,1.67,1.67,0,0,0,1.4.5,2.37,2.37,0,0,0,1.5-.5,4,4,0,0,0,.6-2.4A4.65,4.65,0,0,0,160.4,74Z"
          transform="translate(-1)" style="fill:#285ea4;opacity:0.5;isolation:isolate"></path>
    <path d="M169.7,79.6a3.5,3.5,0,0,1-2.6,1.1,3.4,3.4,0,0,1-2.5-.9,4.26,4.26,0,0,1-.9-3.1,4.65,4.65,0,0,1,.9-3.3,3.46,3.46,0,0,1,2.6-1,3.4,3.4,0,0,1,2.5.9,4.41,4.41,0,0,1,.9,3.1A3.86,3.86,0,0,1,169.7,79.6ZM168.6,74a1.81,1.81,0,0,0-1.4-.5,1.85,1.85,0,0,0-1.4.5,4.4,4.4,0,0,0-.6,2.5,4.11,4.11,0,0,0,.5,2.3,1.67,1.67,0,0,0,1.4.5,2.37,2.37,0,0,0,1.5-.5,4,4,0,0,0,.6-2.4A3.85,3.85,0,0,0,168.6,74Z"
          transform="translate(-1)" style="fill:#285ea4;opacity:0.5;isolation:isolate"></path>
    <path d="M178.9,68.2V80.4h-1.4V79a3,3,0,0,1-2.7,1.6,2.34,2.34,0,0,1-1.8-.8,4.83,4.83,0,0,1-.9-3.3,4.62,4.62,0,0,1,1-3.4,3.06,3.06,0,0,1,2.3-.9,2.28,2.28,0,0,1,2.1,1V68.1l1.4.1Zm-2.3,10.5a3.57,3.57,0,0,0,.9-2.6,2.81,2.81,0,0,0-.6-2,1.74,1.74,0,0,0-1.4-.5c-1.5,0-1.9,1.1-1.9,3s.3,2.8,1.5,2.8A2.13,2.13,0,0,0,176.6,78.7Z"
          transform="translate(-1)" style="fill:#285ea4;opacity:0.5;isolation:isolate"></path>
    <path d="M186.1,68.2V74a2.53,2.53,0,0,1,2.5-1.7c1.5,0,2.3,1,2.3,2.6v5.5h-1.4V75.1c0-1.1-.3-1.6-1.1-1.6-1.2,0-2.3,1.1-2.3,4.1v2.8h-1.4V68.3l1.4-.1Z" transform="translate(-1)"
          style="fill:#285ea4;opacity:0.5;isolation:isolate"></path>
    <path d="M199.5,79.3a3.94,3.94,0,0,1-3.2,1.3,3.29,3.29,0,0,1-2.4-.8,4.24,4.24,0,0,1-1-3.1,5.26,5.26,0,0,1,.9-3.4,3.12,3.12,0,0,1,2.5-1.1c2.3,0,3.2,1.5,3.2,3.4v1h-5.1c0,1.6.3,2.7,1.9,2.7a3.58,3.58,0,0,0,2.4-.9Zm-1.4-3.7c0-1.3-.3-2.1-1.7-2.1s-1.9.8-1.9,2.1Z"
          transform="translate(-1)" style="fill:#285ea4;opacity:0.5;isolation:isolate"></path>
    <path d="M201.2,73.5a3.63,3.63,0,0,1,2.9-1.1c2,0,3,.8,3,2.9v5.2h-1.3V79.2a2.75,2.75,0,0,1-2.5,1.5,2.35,2.35,0,0,1-1.7-.6,2.2,2.2,0,0,1-.6-1.7,2.08,2.08,0,0,1,.9-1.9,4.85,4.85,0,0,1,2.8-.6h1.2v-.4c0-1.4-.4-1.8-1.7-1.8a2.65,2.65,0,0,0-2.1.8Zm3.2,3.3c-1.3,0-2.1.2-2.1,1.4,0,.7.3,1.2,1.1,1.2a2.46,2.46,0,0,0,2.3-2.6Z"
          transform="translate(-1)" style="fill:#285ea4;opacity:0.5;isolation:isolate"></path>
    <path d="M210.5,72.5v1.6a2.34,2.34,0,0,1,2.2-1.8,2.39,2.39,0,0,1,.9.2l-.4,1.4c-.1-.1-.5-.1-.7-.1-1.4,0-2,1.8-2,3.7v3.1h-1.4v-8l1.4-.1Z" transform="translate(-1)"
          style="fill:#285ea4;opacity:0.5;isolation:isolate"></path>
    <path d="M215.8,68.9a.9.9,0,1,1-.9.9A.84.84,0,0,1,215.8,68.9Zm.7,3.6v8h-1.4v-8Z" transform="translate(-1)" style="fill:#285ea4;opacity:0.5;isolation:isolate"></path>
    <path d="M220,72.5v1.7a2.7,2.7,0,0,1,2.6-1.9c1.5,0,2.3,1,2.3,2.6v5.5h-1.4V75.2c0-1.1-.3-1.7-1.1-1.7-1.3,0-2.3,1.2-2.3,4v2.8h-1.4v-8H220v.2Z" transform="translate(-1)"
          style="fill:#285ea4;opacity:0.5;isolation:isolate"></path>
    <path d="M233.4,72.5v8.2c0,1.8-.7,3.6-3.7,3.6a5.07,5.07,0,0,1-3-.9l.7-1.1a3.69,3.69,0,0,0,2.3.7c1.9,0,2.2-.9,2.2-2.4V79a2.79,2.79,0,0,1-2.6,1.5,2.26,2.26,0,0,1-2-.9,5.45,5.45,0,0,1-.8-3.1,4.8,4.8,0,0,1,.9-3.3,3,3,0,0,1,2.2-.9,2.47,2.47,0,0,1,2.3,1.2V72.4l1.5.1Zm-2.2,6.2a3.67,3.67,0,0,0,.8-2.6,2.81,2.81,0,0,0-.6-2,2,2,0,0,0-1.4-.5c-1.5,0-1.8,1.1-1.8,3s.3,2.8,1.6,2.8A2.33,2.33,0,0,0,231.2,78.7Z"
          transform="translate(-1)" style="fill:#285ea4;opacity:0.5;isolation:isolate"></path>
    <path d="M50.4,33.3h5.3V43.7a11.24,11.24,0,0,1,3.2-2,9.22,9.22,0,0,1,3.2-.7,7.32,7.32,0,0,1,5.4,2.2,7.61,7.61,0,0,1,1.9,5.6V62.9H64.1V53.5a28.09,28.09,0,0,0-.3-5.1,3.4,3.4,0,0,0-1.2-2,3.7,3.7,0,0,0-2.1-.6,4.11,4.11,0,0,0-2.8,1.1,5.44,5.44,0,0,0-1.6,3,21.48,21.48,0,0,0-.2,4.4v8.6H50.6l-.2-29.6Z"
          transform="translate(-1)" style="fill:#3a3a3a"></path>
    <path d="M95.9,53.8H78.7a5.44,5.44,0,0,0,2,3.6,6.36,6.36,0,0,0,4.1,1.4A7.34,7.34,0,0,0,90,56.7l4.5,2.1a10.83,10.83,0,0,1-4.1,3.6,12.47,12.47,0,0,1-5.6,1.2,11.07,11.07,0,0,1-8.2-3.2,10.93,10.93,0,0,1-3.2-8,11,11,0,0,1,3.2-8.1,10.7,10.7,0,0,1,7.9-3.2,11.07,11.07,0,0,1,8.2,3.2,11.78,11.78,0,0,1,3.2,8.5Zm-5.3-4.2a5.13,5.13,0,0,0-2.1-2.9,6.63,6.63,0,0,0-3.6-1.1A5.93,5.93,0,0,0,81,46.9a7.21,7.21,0,0,0-2,2.8l11.6-.1Z"
          transform="translate(-1)" style="fill:#3a3a3a"></path>
    <path d="M116.1,41.6h5.4V63h-5.4V60.7a12.24,12.24,0,0,1-3.2,2.2,9.77,9.77,0,0,1-10.6-2.6,11.19,11.19,0,0,1-3-8,11.64,11.64,0,0,1,2.9-8.1,9.28,9.28,0,0,1,7.1-3.2,8.57,8.57,0,0,1,3.6.7,9.29,9.29,0,0,1,3.1,2.2l.1-2.3ZM110.4,46a5.1,5.1,0,0,0-4.1,1.8,6.44,6.44,0,0,0-1.7,4.5,6.11,6.11,0,0,0,1.7,4.6,5.39,5.39,0,0,0,4.1,1.8,5.45,5.45,0,0,0,4.2-1.8,6.52,6.52,0,0,0,1.7-4.6,5.74,5.74,0,0,0-1.7-4.5A5.45,5.45,0,0,0,110.4,46Z"
          transform="translate(-1)" style="fill:#3a3a3a"></path>
    <path d="M127.7,41.6h4.6v2.7a5.39,5.39,0,0,1,2-2.4,5,5,0,0,1,2.7-.8,6.31,6.31,0,0,1,2.2.5l-1.7,4.6a4.11,4.11,0,0,0-1.6-.5,2.53,2.53,0,0,0-2.1,1.5c-.6,1-.8,3-.8,6V63h-5.3V41.6Z"
          transform="translate(-1)" style="fill:#3a3a3a"></path>
    <path d="M144.1,57.4a3.1,3.1,0,0,1,2.2.9,3.1,3.1,0,0,1-2.2,5.3,3.1,3.1,0,0,1-2.2-.9,3.14,3.14,0,0,1,0-4.4A2.74,2.74,0,0,1,144.1,57.4Z" transform="translate(-1)" style="fill:#3a3a3a"></path>
    <path d="M171.7,45.9l-4.5,2.5a6.54,6.54,0,0,0-2.5-1.8,8.36,8.36,0,0,0-2.9-.5,6.89,6.89,0,0,0-4.9,1.8,5.89,5.89,0,0,0-1.9,4.6,5.73,5.73,0,0,0,1.8,4.4,6.34,6.34,0,0,0,4.7,1.7,6.63,6.63,0,0,0,5.6-2.5l4.2,2.9a11.47,11.47,0,0,1-9.7,4.5c-3.8,0-6.7-1.1-8.9-3.4a11,11,0,0,1-3.2-7.8,10.23,10.23,0,0,1,1.6-5.7,11.28,11.28,0,0,1,4.3-4.1,12.64,12.64,0,0,1,6.2-1.5,12,12,0,0,1,5.7,1.3A9.78,9.78,0,0,1,171.7,45.9Z"
          transform="translate(-1)" style="fill:#3a3a3a"></path>
    <path d="M185.8,41a11.57,11.57,0,0,1,5.7,1.5,11,11,0,0,1,5.7,9.7,11.57,11.57,0,0,1-1.5,5.7,10.76,10.76,0,0,1-4.1,4.1,11,11,0,0,1-5.7,1.5,11.27,11.27,0,0,1-11.2-11.3,10.79,10.79,0,0,1,3.7-8.4A11,11,0,0,1,185.8,41Zm0,5.1a5.73,5.73,0,0,0-4.2,1.7,6.2,6.2,0,0,0-1.7,4.4,5.74,5.74,0,0,0,1.7,4.5,5.37,5.37,0,0,0,4.2,1.7,5.45,5.45,0,0,0,4.2-1.8,6.44,6.44,0,0,0,1.7-4.5,6,6,0,0,0-1.7-4.5A5.68,5.68,0,0,0,185.8,46.1Z"
          transform="translate(-1)" style="fill:#3a3a3a"></path>
    <path d="M200.7,41.6h5.4v2.5a8.52,8.52,0,0,1,6.8-3,6.53,6.53,0,0,1,3.6,1,7.36,7.36,0,0,1,2.6,2.9,8.11,8.11,0,0,1,3.2-2.9,9.54,9.54,0,0,1,4.1-1,6.9,6.9,0,0,1,4,1.1,5.65,5.65,0,0,1,2.5,2.8,15.49,15.49,0,0,1,.7,5.6V63h-5.4V52.1c0-2.4-.3-4.1-.9-4.9a3.23,3.23,0,0,0-2.7-1.3,4.63,4.63,0,0,0-2.5.8,4.52,4.52,0,0,0-1.6,2.2,15.07,15.07,0,0,0-.5,4.4V63h-5.4V52.6a14.71,14.71,0,0,0-.4-4.2,3.81,3.81,0,0,0-1.3-1.9,3.61,3.61,0,0,0-2-.6,4.07,4.07,0,0,0-2.4.8,4.52,4.52,0,0,0-1.6,2.2,12.87,12.87,0,0,0-.5,4.5v9.5H201V41.6Z"
          transform="translate(-1)" style="fill:#3a3a3a"></path>
    <path d="M24.2,48V44.4A46.08,46.08,0,0,1,53.4,3.2,1.45,1.45,0,0,0,53,.4h-.1A46.17,46.17,0,0,0,53,92h0a1.46,1.46,0,0,0,.4-2.8A46.31,46.31,0,0,1,24.2,48" transform="translate(-1)"
          style="fill:#fff;opacity:0.5;isolation:isolate"></path>
    <path d="M1,46.2A46.33,46.33,0,0,0,21.8,84.8a19.4,19.4,0,0,0,2.4,1.5c.2.1.4.1.6.2,2,.3,3.8-1.6,3.8-3.7a3.55,3.55,0,0,0-1-2.5l-.3-.3A46.17,46.17,0,0,1,53.1.5,29.4,29.4,0,0,0,47.2,0,46.22,46.22,0,0,0,1,46.2"
          transform="translate(-1)" style="fill:#285ea4"></path>
    <path d="M51.3,10.3A45.7,45.7,0,0,0,37.5,23.1a1.76,1.76,0,0,1-.4.5h0a1.67,1.67,0,0,0,.1,1.2,1.35,1.35,0,0,0,1.9.5c.2-.2.4-.3.6-.5a34.67,34.67,0,0,1,48.1.4l.1.1a1.33,1.33,0,0,0,1.4.3,1.44,1.44,0,0,0,1-1h0a1,1,0,0,0-.2-.9c-.1-.2-.3-.4-.4-.6A47.45,47.45,0,0,0,76,10.4a24.06,24.06,0,0,0-24.7-.1"
          transform="translate(-1)" style="fill:#fff;opacity:0.25;isolation:isolate"></path>
    <path d="M24.2,48V44.4A46.08,46.08,0,0,1,53.4,3.2,1.45,1.45,0,0,0,53,.4h-.1A46.17,46.17,0,0,0,53,92h0a1.46,1.46,0,0,0,.4-2.8A46.31,46.31,0,0,1,24.2,48" transform="translate(-1)"
          style="fill:#285ea4;opacity:0.5;isolation:isolate"></path>
    <path d="M51.3,10.3A45.7,45.7,0,0,0,37.5,23.1a1.76,1.76,0,0,1-.4.5h0a1.67,1.67,0,0,0,.1,1.2,1.35,1.35,0,0,0,1.9.5c.2-.2.4-.3.6-.5a34.67,34.67,0,0,1,48.1.4l.1.1a1.33,1.33,0,0,0,1.4.3,1.44,1.44,0,0,0,1-1h0a1,1,0,0,0-.2-.9c-.1-.2-.3-.4-.4-.6A47.45,47.45,0,0,0,76,10.4a24.06,24.06,0,0,0-24.7-.1"
          transform="translate(-1)" style="fill:#285ea4;opacity:0.25;isolation:isolate"></path>
</svg>
