<svg id="38f82db2-43e1-431e-b364-13862858f1c6" data-name="Ebene 1" xmlns="http://www.w3.org/2000/svg" viewBox="0 0 276.25 157.25">
    <rect width="276.25" height="157.25" style="fill:#fff"></rect>
    <path d="M107.69,33.88h0a21.09,21.09,0,0,0-.31,42.18c5.71,0,10.12-2.27,13.05-6.14v3.57a12.75,12.75,0,0,1-12.75,12.75v8.34a21.1,21.1,0,0,0,21.1-21.09V55h0a21.09,21.09,0,0,0-21.09-21.09Zm0,32.83A11.74,11.74,0,1,1,119.44,55a11.74,11.74,0,0,1-11.75,11.74Zm49-32.82a17.83,17.83,0,0,1,17.83,17.83V75.15h-9.3V51.72a8.53,8.53,0,0,0-17.06,0V75.15h-9.3V51.72A17.83,17.83,0,0,1,156.7,33.89Zm67.71,0h0a21.09,21.09,0,0,0-.32,42.18c5.72,0,10.13-2.27,13.06-6.14v5.23h8.35V55a21.09,21.09,0,0,0-21.09-21.09Zm0,32.83A11.74,11.74,0,1,1,236.15,55a11.74,11.74,0,0,1-11.74,11.74Zm-39,8.44V34.85h9.42v40.3Z"
          transform="translate(0 0.18)" style="fill:#706f6f"></path>
    <path d="M67.77,34.85h9.42v40.3H67.77V34.85Zm-28,14.4V60.7a5.1,5.1,0,0,1-5.1,5.09H30.66v9.36h4.05A14.46,14.46,0,0,0,49.17,60.7V49.25a5.1,5.1,0,0,1,5.09-5h4.05V34.85H54.26a14.45,14.45,0,0,0-14.45,14.4Z"
          transform="translate(0 0.18)" style="fill:#d70926"></path>
    <path d="M32.42,121h8v1.56H30.67v-17.2h1.75Zm11.37-13A1.17,1.17,0,1,1,45,106.8,1.18,1.18,0,0,1,43.79,108Zm.83,14.58H43V111.18h1.65Zm9.19-10H51.14v10H49.49v-10H47.11v-1.38h2.38v-3.11c0-2.58,1.26-4.18,3.86-4.18a5.28,5.28,0,0,1,1.36.17l-.29,1.46a3.91,3.91,0,0,0-1.14-.17c-1.78,0-2.14,1.26-2.14,2.91v2.92h2.67Zm12.48,4.74H56.86A4.15,4.15,0,0,0,61,121.43a4.32,4.32,0,0,0,3.65-2l1.24,1A6,6,0,0,1,61,122.84a6,6,0,0,1-.14-12c3.57,0,5.44,2.53,5.44,5.64C66.31,116.74,66.31,117,66.29,117.3ZM64.63,116a3.58,3.58,0,0,0-3.76-3.72,4,4,0,0,0-4,3.72Zm18.19-2.12a3.08,3.08,0,0,0-2.79-1.6c-1.19,0-2.41.51-2.41,1.77,0,1.07.85,1.56,2.72,1.95,2.68.56,3.94,1.55,3.94,3.33,0,2.59-2.19,3.52-4.28,3.52a5.3,5.3,0,0,1-4.49-2.21l1.31-1A3.77,3.77,0,0,0,80,121.43c1.41,0,2.67-.51,2.67-2,0-1.19-1.19-1.68-3.35-2.19-1.34-.32-3.26-.9-3.26-3.06,0-2.31,2-3.31,4.06-3.31a4.65,4.65,0,0,1,4,2.05Zm9.67,9a6,6,0,1,1,6.07-6A5.83,5.83,0,0,1,92.49,122.84Zm0-10.57a4.59,4.59,0,1,0,4.32,4.59A4.29,4.29,0,0,0,92.49,112.27Zm17.36,10.28c0-.61-.09-1.46-.09-2h-.05a4.45,4.45,0,0,1-3.89,2.24c-2.89,0-4.32-1.87-4.32-4.69v-7h1.65v6.29c0,2.38.7,4,3.08,4,1.75,0,3.45-1.41,3.45-4.44v-5.83h1.65V120c0,.61,0,1.73.1,2.51Zm6.85-11.37c0,.6.1,1.45.1,1.94h0a4.43,4.43,0,0,1,3.88-2.24c2.89,0,4.33,1.88,4.33,4.69v7H123.4v-6.3c0-2.38-.7-4-3.08-4-1.75,0-3.45,1.41-3.45,4.45v5.83h-1.65v-8.87c0-.61,0-1.73-.1-2.5Zm17.17,11.66a6,6,0,0,1,0-12,5.17,5.17,0,0,1,4.3,2.26h.05v-9h1.65v18.37h-1.65v-1.92h-.05A5.25,5.25,0,0,1,133.87,122.84Zm.17-1.41a4.59,4.59,0,0,0,0-9.16c-2.74,0-4.3,2.07-4.3,4.59S131.3,121.43,134,121.43ZM150,113.87a3.08,3.08,0,0,0-2.79-1.6c-1.19,0-2.41.51-2.41,1.77,0,1.07.85,1.56,2.73,1.95,2.67.56,3.93,1.55,3.93,3.33,0,2.59-2.19,3.52-4.28,3.52a5.32,5.32,0,0,1-4.49-2.21l1.31-1a3.78,3.78,0,0,0,3.16,1.77c1.41,0,2.67-.51,2.67-2,0-1.19-1.19-1.68-3.35-2.19-1.34-.32-3.26-.9-3.26-3.06,0-2.31,2-3.31,4.06-3.31a4.65,4.65,0,0,1,4,2.05Zm13.36,6.76v1.92h-1.65V104.18h1.65v9h0a5.17,5.17,0,0,1,4.3-2.26,6,6,0,0,1,0,12,5.25,5.25,0,0,1-4.3-2.21Zm4.18-8.36a4.58,4.58,0,0,0,0,9.16c2.74,0,4.3-2,4.3-4.57S170.25,112.27,167.51,112.27Zm9.29-1.09h1.57c0,.6.1,1.45.1,1.94h.05a4.06,4.06,0,0,1,3.65-2.24,3.75,3.75,0,0,1,1.09.13l-.22,1.55a4.58,4.58,0,0,0-1.17-.14c-1.75,0-3.32,1.26-3.32,4.3v5.83h-1.66v-8.87C176.89,113.07,176.87,112,176.8,111.18Zm9.74-3.21a1.17,1.17,0,1,1,1.16-1.17A1.18,1.18,0,0,1,186.54,108Zm.82,14.58h-1.65V111.18h1.65Zm5.76,0h-1.65V104.18h1.65Zm5.76,0h-1.65V104.18h1.65ZM203.82,108A1.17,1.17,0,1,1,205,106.8,1.18,1.18,0,0,1,203.82,108Zm.82,14.58H203V111.18h1.65Zm11.2-7.34c0-2-1.07-2.94-3-2.94a4.8,4.8,0,0,0-3.38,1.34l-.92-1.1a6.39,6.39,0,0,1,4.47-1.63c2.45,0,4.42,1.37,4.42,4.13v5a15.94,15.94,0,0,0,.19,2.56H216.1a12.23,12.23,0,0,1-.17-1.85h-.05a4.55,4.55,0,0,1-4.13,2.14c-1.72,0-3.93-.93-3.93-3.45,0-3.5,3.86-3.82,8-3.82Zm-.49,1.65c-2.7,0-5.83.29-5.83,2.46,0,1.62,1.38,2.16,2.67,2.16a3.56,3.56,0,0,0,3.65-3.77v-.85Zm7.52-5.68c0,.6.09,1.45.09,1.94h0a4.45,4.45,0,0,1,3.89-2.24c2.89,0,4.32,1.88,4.32,4.69v7h-1.65v-6.3c0-2.38-.7-4-3.08-4-1.75,0-3.45,1.41-3.45,4.45v5.83h-1.65v-8.87c0-.61,0-1.73-.1-2.5Zm17.63,1.38h-3.21v6.63c0,1.7.71,2.09,1.7,2.09a3.4,3.4,0,0,0,1.44-.36l.07,1.43a5.29,5.29,0,0,1-1.94.34,2.71,2.71,0,0,1-2.92-3v-7.1h-2.36v-1.38h2.36V108h1.65v3.21h3.21Zm3.66,10.13a1.31,1.31,0,1,1,1.31-1.31A1.3,1.3,0,0,1,244.16,122.69Z"
          transform="translate(0 0.18)"></path>
    <rect x="0.13" y="0.18" width="275.75" height="157.02" style="fill:none"></rect>
</svg>
